<?xml version="1.0" standalone="no"?>
<!DOCTYPE svg PUBLIC "-//W3C//DTD SVG 20010904//EN"
 "http://www.w3.org/TR/2001/REC-SVG-20010904/DTD/svg10.dtd">
<svg version="1.0" xmlns="http://www.w3.org/2000/svg"
 width="220.000000pt" height="220.000000pt" viewBox="0 0 220.000000 220.000000"
 preserveAspectRatio="xMidYMid meet">
<metadata>
Created by potrace 1.14, written by Peter Selinger 2001-2017
</metadata>
<g transform="translate(0.000000,220.000000) scale(0.100000,-0.100000)"
fill="#000000" stroke="none">
<path d="M0 2105 l0 -95 40 0 c22 0 40 5 40 10 0 6 13 10 29 10 16 0 36 7 45
15 9 9 33 15 61 15 31 0 47 5 51 15 4 9 19 15 35 15 19 0 29 5 29 15 0 11 11
15 40 15 22 0 40 5 40 10 0 6 13 10 29 10 16 0 36 6 43 13 7 8 26 17 41 21 15
3 27 11 27 16 0 6 -102 10 -275 10 l-275 0 0 -95z"/>
<path d="M740 2185 c0 -9 -9 -15 -25 -15 -14 0 -25 -4 -25 -10 0 -5 -15 -10
-34 -10 -19 0 -41 -7 -50 -15 -8 -8 -24 -15 -35 -15 -12 0 -21 -6 -21 -15 0
-11 -11 -15 -36 -15 -19 0 -42 -7 -50 -15 -9 -8 -24 -15 -35 -15 -10 0 -19 -4
-19 -10 0 -5 -16 -10 -35 -10 -22 0 -38 -6 -41 -15 -4 -10 -20 -15 -45 -15
-28 0 -39 -4 -39 -15 0 -11 -12 -15 -45 -15 -31 0 -44 -4 -43 -12 2 -9 -15
-14 -54 -16 -32 -2 -58 -7 -58 -12 0 -6 -11 -10 -25 -10 l-25 0 0 -540 c0
-491 1 -540 16 -540 12 0 15 -7 12 -25 -4 -17 -1 -25 8 -25 8 0 14 -7 14 -15
0 -8 7 -15 15 -15 8 0 15 -7 15 -15 0 -8 7 -15 15 -15 8 0 15 -9 15 -20 0 -12
11 -31 25 -44 14 -13 25 -28 25 -35 0 -6 7 -11 15 -11 8 0 15 -7 15 -15 0 -8
7 -15 15 -15 8 0 15 -9 15 -20 0 -11 18 -38 40 -60 44 -44 47 -50 25 -50 -8 0
-15 -4 -15 -10 0 -15 -33 -50 -42 -44 -4 3 -8 -2 -8 -10 0 -9 -7 -16 -15 -16
-11 0 -15 -12 -15 -45 0 -33 4 -45 15 -45 9 0 15 -9 15 -25 0 -16 -6 -25 -15
-25 -10 0 -15 -10 -15 -30 0 -20 -5 -30 -15 -30 -11 0 -15 -11 -15 -40 0 -29
4 -40 15 -40 11 0 15 -11 15 -40 0 -29 -4 -40 -15 -40 -8 0 -15 -7 -15 -15 0
-13 38 -15 280 -15 242 0 280 2 280 15 0 9 9 15 25 15 16 0 25 -6 25 -15 0
-13 33 -15 235 -15 202 0 235 2 235 15 0 8 5 15 10 15 6 0 10 -7 10 -15 0 -22
56 -20 65 3 6 16 7 16 19 0 18 -24 116 -26 116 -3 0 8 5 15 10 15 6 0 10 -7
10 -15 0 -13 21 -15 125 -15 l125 0 0 25 c0 16 6 25 15 25 8 0 15 7 15 15 0 8
7 15 15 15 10 0 15 10 15 30 0 20 5 30 15 30 12 0 15 13 15 55 0 42 -3 55 -15
55 -9 0 -15 9 -15 25 0 16 6 25 15 25 8 0 15 7 15 15 0 8 5 15 10 15 6 0 10
11 10 25 0 16 6 25 15 25 10 0 15 10 15 30 0 20 5 30 15 30 9 0 15 9 15 24 0
13 7 26 15 30 10 3 15 19 15 46 0 25 4 39 10 35 9 -6 14 14 11 43 -1 6 5 12
14 12 12 0 15 12 15 55 0 42 3 55 15 55 12 0 15 13 15 55 0 42 3 55 15 55 12
0 15 16 15 81 0 56 4 85 14 95 18 17 66 19 66 1 0 -9 12 -11 40 -9 l40 4 0
179 c0 152 -2 179 -15 179 -12 0 -15 15 -15 71 0 44 -4 68 -10 64 -6 -4 -10
15 -10 49 0 43 -3 56 -15 56 -11 0 -15 12 -15 45 0 33 -4 45 -15 45 -9 0 -15
9 -15 25 0 16 -6 25 -15 25 -10 0 -15 10 -15 30 0 17 -4 30 -10 30 -5 0 -10 5
-10 10 0 6 33 10 80 10 79 0 80 0 80 25 0 20 -5 25 -25 25 -14 0 -25 -4 -25
-10 0 -6 -30 -10 -70 -10 -56 0 -70 3 -70 15 0 8 -7 15 -15 15 -8 0 -15 5 -15
11 0 14 -55 69 -69 69 -6 0 -11 7 -11 15 0 8 -7 15 -15 15 -8 0 -15 5 -15 11
0 14 -55 69 -69 69 -6 0 -11 7 -11 15 0 8 -7 15 -15 15 -8 0 -15 7 -15 15 0 8
-5 15 -11 15 -7 0 -22 11 -35 25 l-23 25 -476 0 c-416 0 -475 -2 -475 -15z
m390 -801 l0 -204 110 0 110 0 0 -25 c0 -25 14 -33 25 -15 3 6 17 10 31 10 15
0 24 6 24 15 0 9 9 15 25 15 28 0 34 -15 9 -24 -8 -3 -12 -10 -9 -16 3 -5 -1
-10 -9 -10 -10 0 -16 -9 -16 -25 0 -14 -7 -28 -15 -31 -11 -5 -15 -23 -15 -75
0 -55 3 -69 15 -69 9 0 15 -9 15 -25 0 -16 6 -25 15 -25 8 0 15 -4 15 -10 0
-5 8 -19 17 -30 14 -16 30 -20 80 -20 49 0 63 3 63 15 0 8 7 15 15 15 8 0 15
7 15 15 0 8 7 15 15 15 9 0 15 9 15 24 0 13 7 26 15 30 11 4 15 22 15 71 0 51
-3 65 -15 65 -10 0 -15 10 -15 30 0 20 -5 30 -15 30 -8 0 -15 7 -15 15 0 8 -7
15 -16 15 -8 0 -12 5 -9 10 17 27 100 -9 110 -47 3 -13 10 -23 15 -23 6 0 10
-36 10 -85 0 -47 -4 -85 -9 -85 -5 0 -12 -20 -16 -45 -3 -25 -10 -43 -14 -40
-5 2 -11 -13 -15 -35 -3 -22 -11 -40 -16 -40 -6 0 -10 -11 -10 -25 0 -14 -7
-28 -15 -31 -8 -4 -15 -10 -15 -16 0 -10 -25 -38 -34 -38 -3 0 -23 -18 -45
-40 -21 -22 -44 -40 -50 -40 -6 0 -11 -7 -11 -15 0 -9 -9 -15 -25 -15 -16 0
-25 -6 -25 -15 0 -9 -9 -15 -25 -15 -14 0 -25 -4 -25 -10 0 -5 -13 -10 -29
-10 -17 0 -32 -4 -35 -9 -3 -5 -16 -7 -28 -3 -14 3 -19 1 -14 -6 4 -7 -14 -13
-54 -18 -33 -4 -60 -11 -60 -15 0 -13 -198 -11 -202 1 -2 5 -32 13 -68 17 -36
3 -71 12 -78 20 -7 7 -20 13 -28 13 -8 0 -14 4 -14 9 0 5 -13 12 -30 16 -16 4
-30 11 -30 16 0 5 -5 9 -12 9 -17 0 -98 92 -98 112 0 9 -4 20 -10 23 -15 9
-13 395 1 395 6 0 9 9 6 19 -5 20 25 61 44 61 6 0 7 5 4 10 -3 6 4 10 17 10
13 0 32 7 42 15 26 20 210 22 204 3 -3 -8 -26 -14 -58 -16 -50 -3 -80 -18 -80
-41 0 -6 -7 -11 -15 -11 -10 0 -15 -10 -15 -30 0 -20 -5 -30 -15 -30 -12 0
-15 -14 -15 -70 0 -56 3 -70 15 -70 9 0 15 -9 15 -25 0 -16 6 -25 15 -25 8 0
15 -4 15 -10 0 -5 8 -19 17 -30 14 -16 30 -20 80 -20 49 0 63 3 63 15 0 8 7
15 15 15 8 0 15 7 15 15 0 8 7 15 15 15 9 0 15 9 15 24 0 13 7 26 15 30 11 4
15 22 15 70 0 47 -4 65 -15 70 -8 3 -15 17 -15 31 0 16 -6 25 -16 25 -11 0
-15 6 -11 19 3 14 0 17 -14 14 -11 -3 -19 0 -19 7 0 20 44 6 55 -17 10 -23 55
-33 55 -12 0 14 -25 39 -39 39 -6 0 -11 7 -11 15 0 8 -7 15 -15 15 -8 0 -15 7
-15 15 0 8 7 15 15 15 9 0 15 10 15 26 0 14 7 32 15 40 8 9 15 29 15 45 0 16
5 29 10 29 6 0 10 23 10 50 0 36 4 52 15 56 11 5 15 22 15 66 0 53 2 59 15 48
12 -10 15 -47 15 -216z m300 21 c0 -69 3 -85 15 -85 12 0 15 -13 15 -55 0 -52
-1 -55 -26 -55 -16 0 -23 -4 -18 -12 4 -7 3 -8 -4 -4 -7 4 -12 2 -12 -3 0 -6
-4 -11 -10 -11 -14 0 -12 27 3 34 10 5 10 7 0 12 -16 7 -18 154 -3 154 6 0 10
22 10 48 0 27 3 52 7 55 18 18 23 0 23 -78z m-792 -207 c-6 -18 -28 -21 -28
-4 0 9 7 16 16 16 9 0 14 -5 12 -12z m-418 -163 c0 -8 -7 -15 -15 -15 -8 0
-15 -7 -15 -15 0 -11 11 -15 40 -15 38 0 40 -1 40 -32 0 -18 3 -43 6 -55 6
-20 3 -23 -25 -23 -17 0 -31 4 -31 10 0 5 -12 13 -27 16 -53 14 -85 66 -48 80
8 4 15 12 15 20 0 8 7 14 15 14 8 0 15 7 15 15 0 8 7 15 15 15 8 0 15 -7 15
-15z m710 -20 c0 -20 -5 -25 -25 -25 -20 0 -25 5 -25 25 0 20 5 25 25 25 20 0
25 -5 25 -25z m635 0 c0 -14 -8 -21 -27 -23 -22 -3 -28 1 -28 16 0 25 10 33
35 30 12 -2 20 -10 20 -23z m165 -505 c0 -40 -4 -70 -10 -70 -5 0 -10 7 -10
15 0 8 -7 15 -15 15 -9 0 -15 9 -15 25 0 16 6 25 15 25 10 0 15 10 15 30 0 17
5 30 10 30 6 0 10 -30 10 -70z m-274 -35 c4 -8 10 -12 15 -9 5 3 9 -20 9 -50
0 -31 -4 -56 -10 -56 -5 0 -10 -11 -10 -24 0 -13 -7 -26 -15 -30 -9 -3 -15 0
-15 9 0 9 -10 15 -25 15 -16 0 -25 6 -25 15 0 10 -10 15 -30 15 -28 0 -30 2
-30 40 0 29 4 40 15 40 8 0 15 7 15 15 0 11 11 15 40 15 22 0 40 5 40 10 0 16
20 12 26 -5z m-228 -134 c3 -8 0 -11 -7 -7 -7 5 -11 -1 -11 -13 0 -12 -7 -21
-15 -21 -8 0 -15 -4 -15 -10 0 -6 -57 -10 -150 -10 -127 0 -150 -2 -150 -15 0
-9 -9 -15 -25 -15 -16 0 -25 6 -25 16 0 8 4 13 9 10 5 -3 11 1 15 9 3 9 19 15
41 15 22 0 38 6 41 15 4 10 20 15 45 15 28 0 39 4 39 15 0 13 16 15 102 13 76
-2 103 -7 106 -17z m142 -221 c0 -5 -4 -10 -10 -10 -5 0 -10 5 -10 10 0 6 5
10 10 10 6 0 10 -4 10 -10z m-666 -19 c4 -5 -3 -7 -14 -4 -23 6 -26 13 -6 13
8 0 17 -4 20 -9z m639 3 c3 -3 -4 -15 -15 -26 -14 -14 -23 -17 -31 -9 -8 8 -6
11 6 11 9 0 17 7 17 15 0 15 12 20 23 9z m87 -10 c0 -17 -22 -14 -28 4 -2 7 3
12 12 12 9 0 16 -7 16 -16z m-770 -24 c0 -5 -11 -10 -25 -10 -14 0 -25 5 -25
10 0 6 11 10 25 10 14 0 25 -4 25 -10z m740 0 c0 -5 -4 -10 -10 -10 -5 0 -10
5 -10 10 0 6 5 10 10 10 6 0 10 -4 10 -10z m-690 -30 c0 -5 -11 -10 -25 -10
-14 0 -25 5 -25 10 0 6 11 10 25 10 14 0 25 -4 25 -10z m580 0 c0 -5 -4 -10
-10 -10 -5 0 -10 5 -10 10 0 6 5 10 10 10 6 0 10 -4 10 -10z m80 0 c0 -5 -4
-10 -10 -10 -5 0 -10 5 -10 10 0 6 5 10 10 10 6 0 10 -4 10 -10z"/>
<path d="M1025 1220 c3 -5 8 -10 11 -10 2 0 4 5 4 10 0 6 -5 10 -11 10 -5 0
-7 -4 -4 -10z"/>
<path d="M1050 1200 c0 -5 5 -10 11 -10 5 0 7 5 4 10 -3 6 -8 10 -11 10 -2 0
-4 -4 -4 -10z"/>
<path d="M1080 1170 c0 -5 5 -10 10 -10 6 0 10 5 10 10 0 6 -4 10 -10 10 -5 0
-10 -4 -10 -10z"/>
<path d="M1290 815 c0 -8 7 -15 15 -15 8 0 15 7 15 15 0 8 -7 15 -15 15 -8 0
-15 -7 -15 -15z"/>
<path d="M1020 636 c0 -19 7 -26 30 -31 17 -4 30 -11 30 -16 0 -5 40 -9 89 -9
81 0 90 2 96 20 4 11 11 18 16 15 5 -4 9 -1 9 4 0 6 -11 11 -25 11 -14 0 -25
-4 -25 -10 0 -6 -30 -10 -70 -10 -40 0 -70 4 -70 10 0 6 -6 10 -14 10 -8 0
-16 7 -20 15 -3 8 -15 15 -26 15 -15 0 -20 -7 -20 -24z"/>
</g>
</svg>
